<?xml version="1.0" encoding="UTF-8" standalone="no"?>
<!DOCTYPE svg PUBLIC "-//W3C//DTD SVG 1.1//EN"
 "http://www.w3.org/Graphics/SVG/1.1/DTD/svg11.dtd">
<!-- Generated by graphviz version 2.40.1 (20161225.0304)
 -->
<!-- Title: decision_tree Pages: 1 -->
<svg width="550pt" height="216pt"
 viewBox="0.00 0.00 549.62 216.00" xmlns="http://www.w3.org/2000/svg" xmlns:xlink="http://www.w3.org/1999/xlink">
<g id="graph0" class="graph" transform="scale(1 1) rotate(0) translate(4 212)">
<title>decision_tree</title>
<polygon fill="#ffffff" stroke="transparent" points="-4,4 -4,-212 545.6203,-212 545.6203,4 -4,4"/>
<!-- A -->
<g id="node1" class="node">
<title>A</title>
<polygon fill="#ffffff" stroke="#ffffff" points="239.769,-135.8019 160.8166,-135.8019 160.8166,-94.5981 239.769,-94.5981 239.769,-135.8019"/>
<text text-anchor="start" x="168.8047" y="-119.4" font-family="Times,serif" font-size="14.00" fill="#000000">Ideological</text>
<text text-anchor="start" x="185.1329" y="-102.6" font-family="Times,serif" font-size="14.00" fill="#000000">name</text>
</g>
<!-- A1 -->
<g id="node3" class="node">
<title>A1</title>
<polygon fill="#ffffff" stroke="#ffffff" points="78.3795,-54.2 .2061,-54.2 .2061,-4.2 78.3795,-4.2 78.3795,-54.2"/>
<text text-anchor="start" x="14.0221" y="-38.6" font-family="Times,serif" font-weight="bold" font-size="14.00" fill="#000000">Classical</text>
<text text-anchor="start" x="8" y="-24.6" font-family="Times,serif" font-weight="bold" font-size="14.00" fill="#000000">party name</text>
<text text-anchor="start" x="9.5519" y="-10.6" font-family="Times,serif" font-size="14.00" fill="#000000">25% (112)</text>
</g>
<!-- A&#45;&gt;A1 -->
<g id="edge3" class="edge">
<title>A&#45;&gt;A1</title>
<path fill="none" stroke="#000000" d="M160.6644,-96.2547C138.8017,-85.5603 111.2978,-71.7062 87.2928,-58.4 87.2022,-58.3498 87.1114,-58.2994 87.0206,-58.249"/>
<polygon fill="#000000" stroke="#000000" points="88.8564,-55.2667 78.4338,-53.3643 85.3952,-61.3511 88.8564,-55.2667"/>
</g>
<!-- A2 -->
<g id="node4" class="node">
<title>A2</title>
<polygon fill="#ffffff" stroke="#ffffff" points="172.2761,-58.6014 96.3095,-58.6014 96.3095,.2014 172.2761,.2014 172.2761,-58.6014"/>
<text text-anchor="start" x="107.8566" y="-41.8" font-family="Times,serif" font-size="14.00" fill="#000000">Nonparty</text>
<text text-anchor="start" x="119.1329" y="-25" font-family="Times,serif" font-size="14.00" fill="#000000">name</text>
<text text-anchor="start" x="104.5519" y="-8.2" font-family="Times,serif" font-size="14.00" fill="#000000">26% (114)</text>
</g>
<!-- A&#45;&gt;A2 -->
<g id="edge4" class="edge">
<title>A&#45;&gt;A2</title>
<path fill="none" stroke="#000000" d="M184.316,-94.3818C177.9426,-86.077 170.4025,-76.252 163.1357,-66.7832"/>
<polygon fill="#000000" stroke="#000000" points="165.7211,-64.4031 156.8562,-58.6009 160.1679,-68.6648 165.7211,-64.4031"/>
</g>
<!-- A3 -->
<g id="node5" class="node">
<title>A3</title>
<polygon fill="#ffffff" stroke="#ffffff" points="266.4486,-58.6014 190.137,-58.6014 190.137,.2014 266.4486,.2014 266.4486,-58.6014"/>
<text text-anchor="start" x="197.9653" y="-41.8" font-family="Times,serif" font-size="14.00" fill="#000000">Movement</text>
<text text-anchor="start" x="213.1329" y="-25" font-family="Times,serif" font-size="14.00" fill="#000000">name</text>
<text text-anchor="start" x="205.5519" y="-8.2" font-family="Times,serif" font-size="14.00" fill="#000000">6% (25)</text>
</g>
<!-- A&#45;&gt;A3 -->
<g id="edge5" class="edge">
<title>A&#45;&gt;A3</title>
<path fill="none" stroke="#000000" d="M207.0708,-94.3818C209.6382,-86.4964 212.6517,-77.2406 215.5885,-68.2203"/>
<polygon fill="#000000" stroke="#000000" points="218.9526,-69.1931 218.7204,-58.6009 212.2964,-67.026 218.9526,-69.1931"/>
</g>
<!-- B -->
<g id="node2" class="node">
<title>B</title>
<polygon fill="#ffffff" stroke="#ffffff" points="398.6061,-135.8019 295.9795,-135.8019 295.9795,-94.5981 398.6061,-94.5981 398.6061,-135.8019"/>
<text text-anchor="start" x="304.1364" y="-119.4" font-family="Times,serif" font-size="14.00" fill="#000000">Nonideological</text>
<text text-anchor="start" x="332.1329" y="-102.6" font-family="Times,serif" font-size="14.00" fill="#000000">name</text>
</g>
<!-- B1 -->
<g id="node6" class="node">
<title>B1</title>
<polygon fill="#ffffff" stroke="#ffffff" points="353.7763,-58.6014 284.8093,-58.6014 284.8093,.2014 353.7763,.2014 353.7763,-58.6014"/>
<text text-anchor="start" x="304.5186" y="-41.8" font-family="Times,serif" font-size="14.00" fill="#000000">Party</text>
<text text-anchor="start" x="304.1329" y="-25" font-family="Times,serif" font-size="14.00" fill="#000000">name</text>
<text text-anchor="start" x="293.0519" y="-8.2" font-family="Times,serif" font-size="14.00" fill="#000000">10% (46)</text>
</g>
<!-- B&#45;&gt;B1 -->
<g id="edge6" class="edge">
<title>B&#45;&gt;B1</title>
<path fill="none" stroke="#000000" d="M340.5148,-94.3818C337.9474,-86.4964 334.9339,-77.2406 331.9971,-68.2203"/>
<polygon fill="#000000" stroke="#000000" points="335.2892,-67.026 328.8652,-58.6009 328.633,-69.1931 335.2892,-67.026"/>
</g>
<!-- B2 -->
<g id="node7" class="node">
<title>B2</title>
<polygon fill="#ffffff" stroke="#ffffff" points="447.2761,-54.2 371.3095,-54.2 371.3095,-4.2 447.2761,-4.2 447.2761,-54.2"/>
<text text-anchor="start" x="382.8566" y="-38.6" font-family="Times,serif" font-weight="bold" font-size="14.00" fill="#000000">Nonparty</text>
<text text-anchor="start" x="394.1329" y="-24.6" font-family="Times,serif" font-weight="bold" font-size="14.00" fill="#000000">name</text>
<text text-anchor="start" x="379.5519" y="-10.6" font-family="Times,serif" font-size="14.00" fill="#000000">27% (121)</text>
</g>
<!-- B&#45;&gt;B2 -->
<g id="edge7" class="edge">
<title>B&#45;&gt;B2</title>
<path fill="none" stroke="#000000" d="M362.3013,-94.3818C369.1447,-84.8894 377.4198,-73.4109 385.1069,-62.7482"/>
<polygon fill="#000000" stroke="#000000" points="388.0981,-64.584 391.1071,-54.4254 382.4199,-60.4903 388.0981,-64.584"/>
</g>
<!-- B3 -->
<g id="node8" class="node">
<title>B3</title>
<polygon fill="#ffffff" stroke="#ffffff" points="541.4486,-54.2 465.137,-54.2 465.137,-4.2 541.4486,-4.2 541.4486,-54.2"/>
<text text-anchor="start" x="472.9653" y="-38.6" font-family="Times,serif" font-weight="bold" font-size="14.00" fill="#000000">Movement</text>
<text text-anchor="start" x="488.1329" y="-24.6" font-family="Times,serif" font-weight="bold" font-size="14.00" fill="#000000">name</text>
<text text-anchor="start" x="480.5519" y="-10.6" font-family="Times,serif" font-size="14.00" fill="#000000">6% (25)</text>
</g>
<!-- B&#45;&gt;B3 -->
<g id="edge8" class="edge">
<title>B&#45;&gt;B3</title>
<path fill="none" stroke="#000000" d="M388.8372,-94.4829C409.3399,-84.0237 434.3255,-70.9238 456.2928,-58.4 456.3815,-58.3494 456.4702,-58.2988 456.559,-58.2481"/>
<polygon fill="#000000" stroke="#000000" points="458.0902,-61.4071 464.961,-53.3422 454.5605,-55.3621 458.0902,-61.4071"/>
</g>
<!-- root -->
<g id="node9" class="node">
<title>root</title>
<polygon fill="#ffffff" stroke="#ffffff" points="323.9119,-208 184.6737,-208 184.6737,-172 323.9119,-172 323.9119,-208"/>
<text text-anchor="middle" x="254.2928" y="-185.8" font-family="Times,serif" font-size="14.00" fill="#000000">The name of the party</text>
</g>
<!-- root&#45;&gt;A -->
<g id="edge1" class="edge">
<title>root&#45;&gt;A</title>
<path fill="none" stroke="#000000" d="M241.2209,-171.893C235.2464,-163.6172 228.0189,-153.6058 221.3103,-144.3132"/>
<polygon fill="#000000" stroke="#000000" points="224.0372,-142.1108 215.346,-136.0515 218.3616,-146.2081 224.0372,-142.1108"/>
</g>
<!-- root&#45;&gt;B -->
<g id="edge2" class="edge">
<title>root&#45;&gt;B</title>
<path fill="none" stroke="#000000" d="M276.8055,-171.893C287.8299,-163.0261 301.3314,-152.1668 313.557,-142.3338"/>
<polygon fill="#000000" stroke="#000000" points="315.7691,-145.0462 321.3678,-136.0515 311.3819,-139.5916 315.7691,-145.0462"/>
</g>
</g>
</svg>

