<?xml version="1.0" encoding="UTF-8" standalone="no"?>
<!DOCTYPE svg PUBLIC "-//W3C//DTD SVG 1.1//EN"
 "http://www.w3.org/Graphics/SVG/1.1/DTD/svg11.dtd">
<!-- Generated by graphviz version 2.40.1 (20161225.0304)
 -->
<!-- Title: decision_tree Pages: 1 -->
<svg width="544pt" height="216pt"
 viewBox="0.00 0.00 543.62 216.00" xmlns="http://www.w3.org/2000/svg" xmlns:xlink="http://www.w3.org/1999/xlink">
<g id="graph0" class="graph" transform="scale(1 1) rotate(0) translate(4 212)">
<title>decision_tree</title>
<polygon fill="#ffffff" stroke="transparent" points="-4,4 -4,-212 539.6203,-212 539.6203,4 -4,4"/>
<!-- A -->
<g id="node1" class="node">
<title>A</title>
<polygon fill="#ffffff" stroke="#ffffff" points="234.769,-135.8019 155.8166,-135.8019 155.8166,-94.5981 234.769,-94.5981 234.769,-135.8019"/>
<text text-anchor="start" x="163.8047" y="-119.4" font-family="Times,serif" font-size="14.00" fill="#000000">Ideological</text>
<text text-anchor="start" x="180.1329" y="-102.6" font-family="Times,serif" font-size="14.00" fill="#000000">name</text>
</g>
<!-- A1 -->
<g id="node3" class="node">
<title>A1</title>
<polygon fill="#ffffff" stroke="#ffffff" points="78.3795,-54.2 .2061,-54.2 .2061,-4.2 78.3795,-4.2 78.3795,-54.2"/>
<text text-anchor="start" x="14.0221" y="-38.6" font-family="Times,serif" font-weight="bold" font-size="14.00" fill="#000000">Classical</text>
<text text-anchor="start" x="8" y="-24.6" font-family="Times,serif" font-weight="bold" font-size="14.00" fill="#000000">party name</text>
<text text-anchor="start" x="13.0519" y="-10.6" font-family="Times,serif" font-size="14.00" fill="#000000">18% (66)</text>
</g>
<!-- A&#45;&gt;A1 -->
<g id="edge3" class="edge">
<title>A&#45;&gt;A1</title>
<path fill="none" stroke="#000000" d="M155.6571,-94.7553C135.3781,-84.145 110.3771,-70.8318 88.2928,-58.4 87.9935,-58.2315 87.6932,-58.0622 87.3922,-57.8922"/>
<polygon fill="#000000" stroke="#000000" points="88.9244,-54.7362 78.5079,-52.8003 85.4436,-60.8095 88.9244,-54.7362"/>
</g>
<!-- A2 -->
<g id="node4" class="node">
<title>A2</title>
<polygon fill="#ffffff" stroke="#ffffff" points="165.6653,-58.6014 96.9203,-58.6014 96.9203,.2014 165.6653,.2014 165.6653,-58.6014"/>
<text text-anchor="start" x="104.8566" y="-41.8" font-family="Times,serif" font-size="14.00" fill="#000000">Nonparty</text>
<text text-anchor="start" x="116.1329" y="-25" font-family="Times,serif" font-size="14.00" fill="#000000">name</text>
<text text-anchor="start" x="105.0519" y="-8.2" font-family="Times,serif" font-size="14.00" fill="#000000">20% (70)</text>
</g>
<!-- A&#45;&gt;A2 -->
<g id="edge4" class="edge">
<title>A&#45;&gt;A2</title>
<path fill="none" stroke="#000000" d="M179.8002,-94.3818C173.6199,-86.077 166.3083,-76.252 159.2617,-66.7832"/>
<polygon fill="#000000" stroke="#000000" points="161.9505,-64.5337 153.1725,-58.6009 156.3348,-68.7128 161.9505,-64.5337"/>
</g>
<!-- A3 -->
<g id="node5" class="node">
<title>A3</title>
<polygon fill="#ffffff" stroke="#ffffff" points="260.4486,-58.6014 184.137,-58.6014 184.137,.2014 260.4486,.2014 260.4486,-58.6014"/>
<text text-anchor="start" x="191.9653" y="-41.8" font-family="Times,serif" font-size="14.00" fill="#000000">Movement</text>
<text text-anchor="start" x="207.1329" y="-25" font-family="Times,serif" font-size="14.00" fill="#000000">name</text>
<text text-anchor="start" x="199.5519" y="-8.2" font-family="Times,serif" font-size="14.00" fill="#000000">3% (11)</text>
</g>
<!-- A&#45;&gt;A3 -->
<g id="edge5" class="edge">
<title>A&#45;&gt;A3</title>
<path fill="none" stroke="#000000" d="M201.8287,-94.3818C204.3044,-86.4964 207.2103,-77.2406 210.0422,-68.2203"/>
<polygon fill="#000000" stroke="#000000" points="213.4061,-69.1901 213.0623,-58.6009 206.7276,-67.0933 213.4061,-69.1901"/>
</g>
<!-- B -->
<g id="node2" class="node">
<title>B</title>
<polygon fill="#ffffff" stroke="#ffffff" points="391.6061,-135.8019 288.9795,-135.8019 288.9795,-94.5981 391.6061,-94.5981 391.6061,-135.8019"/>
<text text-anchor="start" x="297.1364" y="-119.4" font-family="Times,serif" font-size="14.00" fill="#000000">Nonideological</text>
<text text-anchor="start" x="325.1329" y="-102.6" font-family="Times,serif" font-size="14.00" fill="#000000">name</text>
</g>
<!-- B1 -->
<g id="node6" class="node">
<title>B1</title>
<polygon fill="#ffffff" stroke="#ffffff" points="347.7763,-58.6014 278.8093,-58.6014 278.8093,.2014 347.7763,.2014 347.7763,-58.6014"/>
<text text-anchor="start" x="298.5186" y="-41.8" font-family="Times,serif" font-size="14.00" fill="#000000">Party</text>
<text text-anchor="start" x="298.1329" y="-25" font-family="Times,serif" font-size="14.00" fill="#000000">name</text>
<text text-anchor="start" x="287.0519" y="-8.2" font-family="Times,serif" font-size="14.00" fill="#000000">18% (63)</text>
</g>
<!-- B&#45;&gt;B1 -->
<g id="edge6" class="edge">
<title>B&#45;&gt;B1</title>
<path fill="none" stroke="#000000" d="M333.7569,-94.3818C331.2812,-86.4964 328.3753,-77.2406 325.5434,-68.2203"/>
<polygon fill="#000000" stroke="#000000" points="328.858,-67.0933 322.5233,-58.6009 322.1795,-69.1901 328.858,-67.0933"/>
</g>
<!-- B2 -->
<g id="node7" class="node">
<title>B2</title>
<polygon fill="#ffffff" stroke="#ffffff" points="441.2761,-54.2 365.3095,-54.2 365.3095,-4.2 441.2761,-4.2 441.2761,-54.2"/>
<text text-anchor="start" x="376.8566" y="-38.6" font-family="Times,serif" font-weight="bold" font-size="14.00" fill="#000000">Nonparty</text>
<text text-anchor="start" x="388.1329" y="-24.6" font-family="Times,serif" font-weight="bold" font-size="14.00" fill="#000000">name</text>
<text text-anchor="start" x="373.5519" y="-10.6" font-family="Times,serif" font-size="14.00" fill="#000000">33% (119)</text>
</g>
<!-- B&#45;&gt;B2 -->
<g id="edge7" class="edge">
<title>B&#45;&gt;B2</title>
<path fill="none" stroke="#000000" d="M355.5433,-94.3818C362.4971,-84.8894 370.9057,-73.4109 378.7168,-62.7482"/>
<polygon fill="#000000" stroke="#000000" points="381.7276,-64.5608 384.8137,-54.4254 376.0807,-60.4241 381.7276,-64.5608"/>
</g>
<!-- B3 -->
<g id="node8" class="node">
<title>B3</title>
<polygon fill="#ffffff" stroke="#ffffff" points="535.4486,-54.2 459.137,-54.2 459.137,-4.2 535.4486,-4.2 535.4486,-54.2"/>
<text text-anchor="start" x="466.9653" y="-38.6" font-family="Times,serif" font-weight="bold" font-size="14.00" fill="#000000">Movement</text>
<text text-anchor="start" x="482.1329" y="-24.6" font-family="Times,serif" font-weight="bold" font-size="14.00" fill="#000000">name</text>
<text text-anchor="start" x="474.5519" y="-10.6" font-family="Times,serif" font-size="14.00" fill="#000000">8% (29)</text>
</g>
<!-- B&#45;&gt;B3 -->
<g id="edge8" class="edge">
<title>B&#45;&gt;B3</title>
<path fill="none" stroke="#000000" d="M382.2352,-94.5254C402.93,-84.0764 428.1434,-70.9729 450.2928,-58.4 450.3816,-58.3496 450.4704,-58.2991 450.5593,-58.2486"/>
<polygon fill="#000000" stroke="#000000" points="452.0861,-61.4097 458.9678,-53.3541 448.5646,-55.36 452.0861,-61.4097"/>
</g>
<!-- root -->
<g id="node9" class="node">
<title>root</title>
<polygon fill="#ffffff" stroke="#ffffff" points="318.9119,-208 179.6737,-208 179.6737,-172 318.9119,-172 318.9119,-208"/>
<text text-anchor="middle" x="249.2928" y="-185.8" font-family="Times,serif" font-size="14.00" fill="#000000">The name of the party</text>
</g>
<!-- root&#45;&gt;A -->
<g id="edge1" class="edge">
<title>root&#45;&gt;A</title>
<path fill="none" stroke="#000000" d="M236.2209,-171.893C230.2464,-163.6172 223.0189,-153.6058 216.3103,-144.3132"/>
<polygon fill="#000000" stroke="#000000" points="219.0372,-142.1108 210.346,-136.0515 213.3616,-146.2081 219.0372,-142.1108"/>
</g>
<!-- root&#45;&gt;B -->
<g id="edge2" class="edge">
<title>root&#45;&gt;B</title>
<path fill="none" stroke="#000000" d="M271.3214,-171.893C282.0059,-163.1105 295.0684,-152.3734 306.9404,-142.615"/>
<polygon fill="#000000" stroke="#000000" points="309.4226,-145.1053 314.9253,-136.0515 304.9776,-139.6976 309.4226,-145.1053"/>
</g>
</g>
</svg>

